solid Default
  facet normal -1.000000e+00 -0.000000e+00 -0.000000e+00
    outer loop
      vertex 1.190626e+01 2.381246e+00 4.762500e+00
      vertex 1.190626e+01 2.381246e+00 0.000000e+00
      vertex 1.190626e+01 -2.381246e+00 4.762500e+00
    endloop
  endfacet
  facet normal -1.000000e+00 -0.000000e+00 -0.000000e+00
    outer loop
      vertex 1.190626e+01 -2.381246e+00 4.762500e+00
      vertex 1.190626e+01 2.381246e+00 0.000000e+00
      vertex 1.190626e+01 -2.381246e+00 0.000000e+00
    endloop
  endfacet
  facet normal 0.000000e+00 1.000000e+00 0.000000e+00
    outer loop
      vertex 1.190626e+01 -2.381246e+00 4.762500e+00
      vertex 1.190626e+01 -2.381246e+00 0.000000e+00
      vertex 7.143757e+00 -2.381246e+00 4.762500e+00
    endloop
  endfacet
  facet normal 0.000000e+00 1.000000e+00 0.000000e+00
    outer loop
      vertex 7.143757e+00 -2.381246e+00 4.762500e+00
      vertex 1.190626e+01 -2.381246e+00 0.000000e+00
      vertex 7.143757e+00 -2.381246e+00 0.000000e+00
    endloop
  endfacet
  facet normal 1.000000e+00 4.440892e-16 0.000000e+00
    outer loop
      vertex 7.143757e+00 -2.381246e+00 4.762500e+00
      vertex 7.143757e+00 -2.381246e+00 0.000000e+00
      vertex 7.143757e+00 2.381246e+00 4.762500e+00
    endloop
  endfacet
  facet normal 1.000000e+00 4.440892e-16 0.000000e+00
    outer loop
      vertex 7.143757e+00 2.381246e+00 4.762500e+00
      vertex 7.143757e+00 -2.381246e+00 0.000000e+00
      vertex 7.143757e+00 2.381246e+00 0.000000e+00
    endloop
  endfacet
  facet normal 0.000000e+00 -1.000000e+00 0.000000e+00
    outer loop
      vertex 7.143757e+00 2.381246e+00 4.762500e+00
      vertex 7.143757e+00 2.381246e+00 0.000000e+00
      vertex 1.190626e+01 2.381246e+00 4.762500e+00
    endloop
  endfacet
  facet normal 0.000000e+00 -1.000000e+00 0.000000e+00
    outer loop
      vertex 1.190626e+01 2.381246e+00 4.762500e+00
      vertex 7.143757e+00 2.381246e+00 0.000000e+00
      vertex 1.190626e+01 2.381246e+00 0.000000e+00
    endloop
  endfacet
  facet normal -1.000000e+00 -0.000000e+00 -0.000000e+00
    outer loop
      vertex -7.143744e+00 2.381246e+00 4.762500e+00
      vertex -7.143744e+00 2.381246e+00 0.000000e+00
      vertex -7.143744e+00 -2.381246e+00 4.762500e+00
    endloop
  endfacet
  facet normal -1.000000e+00 -0.000000e+00 -0.000000e+00
    outer loop
      vertex -7.143744e+00 -2.381246e+00 4.762500e+00
      vertex -7.143744e+00 2.381246e+00 0.000000e+00
      vertex -7.143744e+00 -2.381246e+00 0.000000e+00
    endloop
  endfacet
  facet normal 0.000000e+00 1.000000e+00 0.000000e+00
    outer loop
      vertex -7.143744e+00 -2.381246e+00 4.762500e+00
      vertex -7.143744e+00 -2.381246e+00 0.000000e+00
      vertex -1.190624e+01 -2.381246e+00 4.762500e+00
    endloop
  endfacet
  facet normal 0.000000e+00 1.000000e+00 0.000000e+00
    outer loop
      vertex -1.190624e+01 -2.381246e+00 4.762500e+00
      vertex -7.143744e+00 -2.381246e+00 0.000000e+00
      vertex -1.190624e+01 -2.381246e+00 0.000000e+00
    endloop
  endfacet
  facet normal 1.000000e+00 4.440892e-16 0.000000e+00
    outer loop
      vertex -1.190624e+01 -2.381246e+00 4.762500e+00
      vertex -1.190624e+01 -2.381246e+00 0.000000e+00
      vertex -1.190624e+01 2.381246e+00 4.762500e+00
    endloop
  endfacet
  facet normal 1.000000e+00 4.440892e-16 0.000000e+00
    outer loop
      vertex -1.190624e+01 2.381246e+00 4.762500e+00
      vertex -1.190624e+01 -2.381246e+00 0.000000e+00
      vertex -1.190624e+01 2.381246e+00 0.000000e+00
    endloop
  endfacet
  facet normal 0.000000e+00 -1.000000e+00 0.000000e+00
    outer loop
      vertex -1.190624e+01 2.381246e+00 4.762500e+00
      vertex -1.190624e+01 2.381246e+00 0.000000e+00
      vertex -7.143744e+00 2.381246e+00 4.762500e+00
    endloop
  endfacet
  facet normal 0.000000e+00 -1.000000e+00 0.000000e+00
    outer loop
      vertex -7.143744e+00 2.381246e+00 4.762500e+00
      vertex -1.190624e+01 2.381246e+00 0.000000e+00
      vertex -7.143744e+00 2.381246e+00 0.000000e+00
    endloop
  endfacet
  facet normal 1.000000e+00 4.491347e-16 0.000000e+00
    outer loop
      vertex -2.381243e+00 7.143746e+00 4.762500e+00
      vertex -2.381243e+00 7.143746e+00 0.000000e+00
      vertex -2.381243e+00 1.067550e+01 4.762500e+00
    endloop
  endfacet
  facet normal 1.000000e+00 4.491347e-16 0.000000e+00
    outer loop
      vertex -2.381243e+00 1.067550e+01 4.762500e+00
      vertex -2.381243e+00 7.143746e+00 0.000000e+00
      vertex -2.381243e+00 1.067550e+01 0.000000e+00
    endloop
  endfacet
  facet normal 0.000000e+00 -1.000000e+00 0.000000e+00
    outer loop
      vertex -2.381243e+00 1.067550e+01 4.762500e+00
      vertex -2.381243e+00 1.067550e+01 0.000000e+00
      vertex 2.381258e+00 1.067550e+01 4.762500e+00
    endloop
  endfacet
  facet normal 0.000000e+00 -1.000000e+00 0.000000e+00
    outer loop
      vertex 2.381258e+00 1.067550e+01 4.762500e+00
      vertex -2.381243e+00 1.067550e+01 0.000000e+00
      vertex 2.381258e+00 1.067550e+01 0.000000e+00
    endloop
  endfacet
  facet normal -1.000000e+00 -2.994231e-16 -0.000000e+00
    outer loop
      vertex 2.381258e+00 1.067550e+01 4.762500e+00
      vertex 2.381258e+00 1.067550e+01 0.000000e+00
      vertex 2.381258e+00 7.143746e+00 4.762500e+00
    endloop
  endfacet
  facet normal -1.000000e+00 -2.994231e-16 0.000000e+00
    outer loop
      vertex 2.381258e+00 7.143746e+00 4.762500e+00
      vertex 2.381258e+00 1.067550e+01 0.000000e+00
      vertex 2.381258e+00 7.143746e+00 0.000000e+00
    endloop
  endfacet
  facet normal 0.000000e+00 1.000000e+00 0.000000e+00
    outer loop
      vertex 2.381258e+00 7.143746e+00 4.762500e+00
      vertex 2.381258e+00 7.143746e+00 0.000000e+00
      vertex -2.381243e+00 7.143746e+00 4.762500e+00
    endloop
  endfacet
  facet normal 0.000000e+00 1.000000e+00 0.000000e+00
    outer loop
      vertex -2.381243e+00 7.143746e+00 4.762500e+00
      vertex 2.381258e+00 7.143746e+00 0.000000e+00
      vertex -2.381243e+00 7.143746e+00 0.000000e+00
    endloop
  endfacet
  facet normal -2.368476e-15 1.000000e+00 0.000000e+00
    outer loop
      vertex -3.571868e+00 7.143746e+00 4.762500e+00
      vertex -3.571868e+00 7.143746e+00 0.000000e+00
      vertex -7.143744e+00 7.143746e+00 4.762500e+00
    endloop
  endfacet
  facet normal -2.368476e-15 1.000000e+00 0.000000e+00
    outer loop
      vertex -7.143744e+00 7.143746e+00 4.762500e+00
      vertex -3.571868e+00 7.143746e+00 0.000000e+00
      vertex -7.143744e+00 7.143746e+00 0.000000e+00
    endloop
  endfacet
  facet normal -1.000000e+00 -4.440892e-16 -0.000000e+00
    outer loop
      vertex -1.666874e+01 -1.666875e+01 4.762500e+00
      vertex -1.666874e+01 -1.666875e+01 0.000000e+00
      vertex -1.666874e+01 -2.143125e+01 4.762500e+00
    endloop
  endfacet
  facet normal -1.000000e+00 -4.440892e-16 0.000000e+00
    outer loop
      vertex -1.666874e+01 -2.143125e+01 4.762500e+00
      vertex -1.666874e+01 -1.666875e+01 0.000000e+00
      vertex -1.666874e+01 -2.143125e+01 0.000000e+00
    endloop
  endfacet
  facet normal 8.881784e-16 -1.000000e+00 0.000000e+00
    outer loop
      vertex -2.143125e+01 -1.666875e+01 4.762500e+00
      vertex -2.143125e+01 -1.666875e+01 0.000000e+00
      vertex -1.666874e+01 -1.666875e+01 4.762500e+00
    endloop
  endfacet
  facet normal 8.881784e-16 -1.000000e+00 0.000000e+00
    outer loop
      vertex -1.666874e+01 -1.666875e+01 4.762500e+00
      vertex -2.143125e+01 -1.666875e+01 0.000000e+00
      vertex -1.666874e+01 -1.666875e+01 0.000000e+00
    endloop
  endfacet
  facet normal -1.000000e+00 -8.881784e-16 -0.000000e+00
    outer loop
      vertex -2.143125e+01 -7.143746e+00 4.762500e+00
      vertex -2.143125e+01 -7.143746e+00 0.000000e+00
      vertex -2.143125e+01 -1.666875e+01 4.762500e+00
    endloop
  endfacet
  facet normal -1.000000e+00 -8.881784e-16 0.000000e+00
    outer loop
      vertex -2.143125e+01 -1.666875e+01 4.762500e+00
      vertex -2.143125e+01 -7.143746e+00 0.000000e+00
      vertex -2.143125e+01 -1.666875e+01 0.000000e+00
    endloop
  endfacet
  facet normal 8.881784e-16 -1.000000e+00 0.000000e+00
    outer loop
      vertex -2.619375e+01 -7.143746e+00 4.762500e+00
      vertex -2.619375e+01 -7.143746e+00 0.000000e+00
      vertex -2.143125e+01 -7.143746e+00 4.762500e+00
    endloop
  endfacet
  facet normal 8.881784e-16 -1.000000e+00 0.000000e+00
    outer loop
      vertex -2.143125e+01 -7.143746e+00 4.762500e+00
      vertex -2.619375e+01 -7.143746e+00 0.000000e+00
      vertex -2.143125e+01 -7.143746e+00 0.000000e+00
    endloop
  endfacet
  facet normal 1.000000e+00 1.332268e-15 0.000000e+00
    outer loop
      vertex -2.619375e+01 -1.666875e+01 4.762500e+00
      vertex -2.619375e+01 -1.666875e+01 0.000000e+00
      vertex -2.619375e+01 -7.143746e+00 4.762500e+00
    endloop
  endfacet
  facet normal 1.000000e+00 1.332268e-15 0.000000e+00
    outer loop
      vertex -2.619375e+01 -7.143746e+00 4.762500e+00
      vertex -2.619375e+01 -1.666875e+01 0.000000e+00
      vertex -2.619375e+01 -7.143746e+00 0.000000e+00
    endloop
  endfacet
  facet normal 1.221245e-15 -1.000000e+00 0.000000e+00
    outer loop
      vertex -3.095625e+01 -1.666875e+01 4.762500e+00
      vertex -3.095625e+01 -1.666875e+01 0.000000e+00
      vertex -2.619375e+01 -1.666875e+01 4.762500e+00
    endloop
  endfacet
  facet normal 1.221245e-15 -1.000000e+00 0.000000e+00
    outer loop
      vertex -2.619375e+01 -1.666875e+01 4.762500e+00
      vertex -3.095625e+01 -1.666875e+01 0.000000e+00
      vertex -2.619375e+01 -1.666875e+01 0.000000e+00
    endloop
  endfacet
  facet normal -1.000000e+00 -1.480297e-15 -0.000000e+00
    outer loop
      vertex -3.095625e+01 -2.381246e+00 4.762500e+00
      vertex -3.095625e+01 -2.381246e+00 0.000000e+00
      vertex -3.095625e+01 -1.666875e+01 4.762500e+00
    endloop
  endfacet
  facet normal -1.000000e+00 -1.480297e-15 0.000000e+00
    outer loop
      vertex -3.095625e+01 -1.666875e+01 4.762500e+00
      vertex -3.095625e+01 -2.381246e+00 0.000000e+00
      vertex -3.095625e+01 -1.666875e+01 0.000000e+00
    endloop
  endfacet
  facet normal -1.332268e-15 1.000000e+00 0.000000e+00
    outer loop
      vertex -2.619375e+01 -2.381246e+00 4.762500e+00
      vertex -2.619375e+01 -2.381246e+00 0.000000e+00
      vertex -3.095625e+01 -2.381246e+00 4.762500e+00
    endloop
  endfacet
  facet normal -1.332268e-15 1.000000e+00 0.000000e+00
    outer loop
      vertex -3.095625e+01 -2.381246e+00 4.762500e+00
      vertex -2.619375e+01 -2.381246e+00 0.000000e+00
      vertex -3.095625e+01 -2.381246e+00 0.000000e+00
    endloop
  endfacet
  facet normal -1.000000e+00 -1.776357e-15 -0.000000e+00
    outer loop
      vertex -2.619375e+01 2.381246e+00 4.762500e+00
      vertex -2.619375e+01 2.381246e+00 0.000000e+00
      vertex -2.619375e+01 -2.381246e+00 4.762500e+00
    endloop
  endfacet
  facet normal -1.000000e+00 -1.776357e-15 0.000000e+00
    outer loop
      vertex -2.619375e+01 -2.381246e+00 4.762500e+00
      vertex -2.619375e+01 2.381246e+00 0.000000e+00
      vertex -2.619375e+01 -2.381246e+00 0.000000e+00
    endloop
  endfacet
  facet normal -8.881784e-16 1.000000e+00 0.000000e+00
    outer loop
      vertex -2.143125e+01 2.381246e+00 4.762500e+00
      vertex -2.143125e+01 2.381246e+00 0.000000e+00
      vertex -2.619375e+01 2.381246e+00 4.762500e+00
    endloop
  endfacet
  facet normal -8.881784e-16 1.000000e+00 0.000000e+00
    outer loop
      vertex -2.619375e+01 2.381246e+00 4.762500e+00
      vertex -2.143125e+01 2.381246e+00 0.000000e+00
      vertex -2.619375e+01 2.381246e+00 0.000000e+00
    endloop
  endfacet
  facet normal -1.000000e+00 -0.000000e+00 -0.000000e+00
    outer loop
      vertex -2.143125e+01 7.143746e+00 4.762500e+00
      vertex -2.143125e+01 7.143746e+00 0.000000e+00
      vertex -2.143125e+01 2.381246e+00 4.762500e+00
    endloop
  endfacet
  facet normal -1.000000e+00 -0.000000e+00 -0.000000e+00
    outer loop
      vertex -2.143125e+01 2.381246e+00 4.762500e+00
      vertex -2.143125e+01 7.143746e+00 0.000000e+00
      vertex -2.143125e+01 2.381246e+00 0.000000e+00
    endloop
  endfacet
  facet normal -1.332268e-15 1.000000e+00 0.000000e+00
    outer loop
      vertex -1.190624e+01 7.143746e+00 4.762500e+00
      vertex -1.190624e+01 7.143746e+00 0.000000e+00
      vertex -2.143125e+01 7.143746e+00 4.762500e+00
    endloop
  endfacet
  facet normal -1.332268e-15 1.000000e+00 0.000000e+00
    outer loop
      vertex -2.143125e+01 7.143746e+00 4.762500e+00
      vertex -1.190624e+01 7.143746e+00 0.000000e+00
      vertex -2.143125e+01 7.143746e+00 0.000000e+00
    endloop
  endfacet
  facet normal -1.000000e+00 -1.332268e-15 -0.000000e+00
    outer loop
      vertex -1.190624e+01 1.190625e+01 4.762500e+00
      vertex -1.190624e+01 1.190625e+01 0.000000e+00
      vertex -1.190624e+01 7.143746e+00 4.762500e+00
    endloop
  endfacet
  facet normal -1.000000e+00 -1.332268e-15 0.000000e+00
    outer loop
      vertex -1.190624e+01 7.143746e+00 4.762500e+00
      vertex -1.190624e+01 1.190625e+01 0.000000e+00
      vertex -1.190624e+01 7.143746e+00 0.000000e+00
    endloop
  endfacet
  facet normal 0.000000e+00 -1.000000e+00 0.000000e+00
    outer loop
      vertex -1.666874e+01 1.190625e+01 4.762500e+00
      vertex -1.666874e+01 1.190625e+01 0.000000e+00
      vertex -1.190624e+01 1.190625e+01 4.762500e+00
    endloop
  endfacet
  facet normal 0.000000e+00 -1.000000e+00 0.000000e+00
    outer loop
      vertex -1.190624e+01 1.190625e+01 4.762500e+00
      vertex -1.666874e+01 1.190625e+01 0.000000e+00
      vertex -1.190624e+01 1.190625e+01 0.000000e+00
    endloop
  endfacet
  facet normal -1.000000e+00 -8.881784e-16 -0.000000e+00
    outer loop
      vertex -1.666874e+01 1.666875e+01 4.762500e+00
      vertex -1.666874e+01 1.666875e+01 0.000000e+00
      vertex -1.666874e+01 1.190625e+01 4.762500e+00
    endloop
  endfacet
  facet normal -1.000000e+00 -8.881784e-16 0.000000e+00
    outer loop
      vertex -1.666874e+01 1.190625e+01 4.762500e+00
      vertex -1.666874e+01 1.666875e+01 0.000000e+00
      vertex -1.666874e+01 1.190625e+01 0.000000e+00
    endloop
  endfacet
  facet normal 1.776357e-15 -1.000000e+00 0.000000e+00
    outer loop
      vertex -2.143125e+01 1.666875e+01 4.762500e+00
      vertex -2.143125e+01 1.666875e+01 0.000000e+00
      vertex -1.666874e+01 1.666875e+01 4.762500e+00
    endloop
  endfacet
  facet normal 1.776357e-15 -1.000000e+00 0.000000e+00
    outer loop
      vertex -1.666874e+01 1.666875e+01 4.762500e+00
      vertex -2.143125e+01 1.666875e+01 0.000000e+00
      vertex -1.666874e+01 1.666875e+01 0.000000e+00
    endloop
  endfacet
  facet normal -1.000000e+00 -1.776357e-15 -0.000000e+00
    outer loop
      vertex -2.143125e+01 2.143125e+01 4.762500e+00
      vertex -2.143125e+01 2.143125e+01 0.000000e+00
      vertex -2.143125e+01 1.666875e+01 4.762500e+00
    endloop
  endfacet
  facet normal -1.000000e+00 -1.776357e-15 0.000000e+00
    outer loop
      vertex -2.143125e+01 1.666875e+01 4.762500e+00
      vertex -2.143125e+01 2.143125e+01 0.000000e+00
      vertex -2.143125e+01 1.666875e+01 0.000000e+00
    endloop
  endfacet
  facet normal -1.184238e-15 1.000000e+00 0.000000e+00
    outer loop
      vertex -1.428749e+01 2.143125e+01 4.762500e+00
      vertex -1.428749e+01 2.143125e+01 0.000000e+00
      vertex -2.143125e+01 2.143125e+01 4.762500e+00
    endloop
  endfacet
  facet normal -1.184238e-15 1.000000e+00 0.000000e+00
    outer loop
      vertex -2.143125e+01 2.143125e+01 4.762500e+00
      vertex -1.428749e+01 2.143125e+01 0.000000e+00
      vertex -2.143125e+01 2.143125e+01 0.000000e+00
    endloop
  endfacet
  facet normal 1.000000e+00 2.220446e-15 0.000000e+00
    outer loop
      vertex -1.428749e+01 1.666875e+01 4.762500e+00
      vertex -1.428749e+01 1.666875e+01 0.000000e+00
      vertex -1.428749e+01 2.143125e+01 4.762500e+00
    endloop
  endfacet
  facet normal 1.000000e+00 2.220446e-15 0.000000e+00
    outer loop
      vertex -1.428749e+01 2.143125e+01 4.762500e+00
      vertex -1.428749e+01 1.666875e+01 0.000000e+00
      vertex -1.428749e+01 2.143125e+01 0.000000e+00
    endloop
  endfacet
  facet normal -2.368476e-15 1.000000e+00 0.000000e+00
    outer loop
      vertex -7.143744e+00 1.666875e+01 4.762500e+00
      vertex -7.143744e+00 1.666875e+01 0.000000e+00
      vertex -1.428749e+01 1.666875e+01 4.762500e+00
    endloop
  endfacet
  facet normal -2.368476e-15 1.000000e+00 0.000000e+00
    outer loop
      vertex -1.428749e+01 1.666875e+01 4.762500e+00
      vertex -7.143744e+00 1.666875e+01 0.000000e+00
      vertex -1.428749e+01 1.666875e+01 0.000000e+00
    endloop
  endfacet
  facet normal 1.000000e+00 2.109424e-15 0.000000e+00
    outer loop
      vertex -7.143744e+00 7.143746e+00 4.762500e+00
      vertex -7.143744e+00 7.143746e+00 0.000000e+00
      vertex -7.143744e+00 1.666875e+01 4.762500e+00
    endloop
  endfacet
  facet normal 1.000000e+00 2.109424e-15 0.000000e+00
    outer loop
      vertex -7.143744e+00 1.666875e+01 4.762500e+00
      vertex -7.143744e+00 7.143746e+00 0.000000e+00
      vertex -7.143744e+00 1.666875e+01 0.000000e+00
    endloop
  endfacet
  facet normal -3.552715e-15 1.000000e+00 0.000000e+00
    outer loop
      vertex 3.571882e+00 7.143746e+00 0.000000e+00
      vertex 3.571882e+00 7.143746e+00 4.762500e+00
      vertex 7.143757e+00 7.143746e+00 0.000000e+00
    endloop
  endfacet
  facet normal -3.552715e-15 1.000000e+00 0.000000e+00
    outer loop
      vertex 7.143757e+00 7.143746e+00 0.000000e+00
      vertex 3.571882e+00 7.143746e+00 4.762500e+00
      vertex 7.143757e+00 7.143746e+00 4.762500e+00
    endloop
  endfacet
  facet normal -1.000000e+00 -3.330669e-16 -0.000000e+00
    outer loop
      vertex 7.143757e+00 1.666875e+01 4.762500e+00
      vertex 7.143757e+00 1.666875e+01 0.000000e+00
      vertex 7.143757e+00 7.143746e+00 4.762500e+00
    endloop
  endfacet
  facet normal -1.000000e+00 -3.330669e-16 0.000000e+00
    outer loop
      vertex 7.143757e+00 7.143746e+00 4.762500e+00
      vertex 7.143757e+00 1.666875e+01 0.000000e+00
      vertex 7.143757e+00 7.143746e+00 0.000000e+00
    endloop
  endfacet
  facet normal 0.000000e+00 1.000000e+00 0.000000e+00
    outer loop
      vertex 1.428751e+01 1.666875e+01 4.762500e+00
      vertex 1.428751e+01 1.666875e+01 0.000000e+00
      vertex 7.143757e+00 1.666875e+01 4.762500e+00
    endloop
  endfacet
  facet normal 0.000000e+00 1.000000e+00 0.000000e+00
    outer loop
      vertex 7.143757e+00 1.666875e+01 4.762500e+00
      vertex 1.428751e+01 1.666875e+01 0.000000e+00
      vertex 7.143757e+00 1.666875e+01 0.000000e+00
    endloop
  endfacet
  facet normal -1.000000e+00 -1.776357e-15 -0.000000e+00
    outer loop
      vertex 1.428751e+01 2.143125e+01 4.762500e+00
      vertex 1.428751e+01 2.143125e+01 0.000000e+00
      vertex 1.428751e+01 1.666875e+01 4.762500e+00
    endloop
  endfacet
  facet normal -1.000000e+00 -1.776357e-15 0.000000e+00
    outer loop
      vertex 1.428751e+01 1.666875e+01 4.762500e+00
      vertex 1.428751e+01 2.143125e+01 0.000000e+00
      vertex 1.428751e+01 1.666875e+01 0.000000e+00
    endloop
  endfacet
  facet normal -1.184238e-15 1.000000e+00 0.000000e+00
    outer loop
      vertex 2.143125e+01 2.143125e+01 4.762500e+00
      vertex 2.143125e+01 2.143125e+01 0.000000e+00
      vertex 1.428751e+01 2.143125e+01 4.762500e+00
    endloop
  endfacet
  facet normal -1.184238e-15 1.000000e+00 0.000000e+00
    outer loop
      vertex 1.428751e+01 2.143125e+01 4.762500e+00
      vertex 2.143125e+01 2.143125e+01 0.000000e+00
      vertex 1.428751e+01 2.143125e+01 0.000000e+00
    endloop
  endfacet
  facet normal 1.000000e+00 8.881784e-16 0.000000e+00
    outer loop
      vertex 2.143125e+01 1.666875e+01 4.762500e+00
      vertex 2.143125e+01 1.666875e+01 0.000000e+00
      vertex 2.143125e+01 2.143125e+01 4.762500e+00
    endloop
  endfacet
  facet normal 1.000000e+00 8.881784e-16 0.000000e+00
    outer loop
      vertex 2.143125e+01 2.143125e+01 4.762500e+00
      vertex 2.143125e+01 1.666875e+01 0.000000e+00
      vertex 2.143125e+01 2.143125e+01 0.000000e+00
    endloop
  endfacet
  facet normal 0.000000e+00 -1.000000e+00 0.000000e+00
    outer loop
      vertex 1.666876e+01 1.666875e+01 4.762500e+00
      vertex 1.666876e+01 1.666875e+01 0.000000e+00
      vertex 2.143125e+01 1.666875e+01 4.762500e+00
    endloop
  endfacet
  facet normal 0.000000e+00 -1.000000e+00 0.000000e+00
    outer loop
      vertex 2.143125e+01 1.666875e+01 4.762500e+00
      vertex 1.666876e+01 1.666875e+01 0.000000e+00
      vertex 2.143125e+01 1.666875e+01 0.000000e+00
    endloop
  endfacet
  facet normal 1.000000e+00 2.220446e-15 0.000000e+00
    outer loop
      vertex 1.666876e+01 1.190625e+01 4.762500e+00
      vertex 1.666876e+01 1.190625e+01 0.000000e+00
      vertex 1.666876e+01 1.666875e+01 4.762500e+00
    endloop
  endfacet
  facet normal 1.000000e+00 2.220446e-15 0.000000e+00
    outer loop
      vertex 1.666876e+01 1.666875e+01 4.762500e+00
      vertex 1.666876e+01 1.190625e+01 0.000000e+00
      vertex 1.666876e+01 1.666875e+01 0.000000e+00
    endloop
  endfacet
  facet normal -1.776357e-15 -1.000000e+00 -0.000000e+00
    outer loop
      vertex 1.190626e+01 1.190625e+01 4.762500e+00
      vertex 1.190626e+01 1.190625e+01 0.000000e+00
      vertex 1.666876e+01 1.190625e+01 4.762500e+00
    endloop
  endfacet
  facet normal -1.776357e-15 -1.000000e+00 0.000000e+00
    outer loop
      vertex 1.666876e+01 1.190625e+01 4.762500e+00
      vertex 1.190626e+01 1.190625e+01 0.000000e+00
      vertex 1.666876e+01 1.190625e+01 0.000000e+00
    endloop
  endfacet
  facet normal 1.000000e+00 1.776357e-15 0.000000e+00
    outer loop
      vertex 1.190626e+01 7.143746e+00 4.762500e+00
      vertex 1.190626e+01 7.143746e+00 0.000000e+00
      vertex 1.190626e+01 1.190625e+01 4.762500e+00
    endloop
  endfacet
  facet normal 1.000000e+00 1.776357e-15 0.000000e+00
    outer loop
      vertex 1.190626e+01 1.190625e+01 4.762500e+00
      vertex 1.190626e+01 7.143746e+00 0.000000e+00
      vertex 1.190626e+01 1.190625e+01 0.000000e+00
    endloop
  endfacet
  facet normal 1.332268e-15 1.000000e+00 0.000000e+00
    outer loop
      vertex 2.143125e+01 7.143746e+00 4.762500e+00
      vertex 2.143125e+01 7.143746e+00 0.000000e+00
      vertex 1.190626e+01 7.143746e+00 4.762500e+00
    endloop
  endfacet
  facet normal 1.332268e-15 1.000000e+00 0.000000e+00
    outer loop
      vertex 1.190626e+01 7.143746e+00 4.762500e+00
      vertex 2.143125e+01 7.143746e+00 0.000000e+00
      vertex 1.190626e+01 7.143746e+00 0.000000e+00
    endloop
  endfacet
  facet normal 1.000000e+00 0.000000e+00 0.000000e+00
    outer loop
      vertex 2.143125e+01 2.381246e+00 4.762500e+00
      vertex 2.143125e+01 2.381246e+00 0.000000e+00
      vertex 2.143125e+01 7.143746e+00 4.762500e+00
    endloop
  endfacet
  facet normal 1.000000e+00 0.000000e+00 0.000000e+00
    outer loop
      vertex 2.143125e+01 7.143746e+00 4.762500e+00
      vertex 2.143125e+01 2.381246e+00 0.000000e+00
      vertex 2.143125e+01 7.143746e+00 0.000000e+00
    endloop
  endfacet
  facet normal 8.881784e-16 1.000000e+00 0.000000e+00
    outer loop
      vertex 2.619375e+01 2.381246e+00 4.762500e+00
      vertex 2.619375e+01 2.381246e+00 0.000000e+00
      vertex 2.143125e+01 2.381246e+00 4.762500e+00
    endloop
  endfacet
  facet normal 8.881784e-16 1.000000e+00 0.000000e+00
    outer loop
      vertex 2.143125e+01 2.381246e+00 4.762500e+00
      vertex 2.619375e+01 2.381246e+00 0.000000e+00
      vertex 2.143125e+01 2.381246e+00 0.000000e+00
    endloop
  endfacet
  facet normal 1.000000e+00 0.000000e+00 0.000000e+00
    outer loop
      vertex 2.619375e+01 -2.381246e+00 4.762500e+00
      vertex 2.619375e+01 -2.381246e+00 0.000000e+00
      vertex 2.619375e+01 2.381246e+00 4.762500e+00
    endloop
  endfacet
  facet normal 1.000000e+00 0.000000e+00 0.000000e+00
    outer loop
      vertex 2.619375e+01 2.381246e+00 4.762500e+00
      vertex 2.619375e+01 -2.381246e+00 0.000000e+00
      vertex 2.619375e+01 2.381246e+00 0.000000e+00
    endloop
  endfacet
  facet normal 1.332268e-15 1.000000e+00 0.000000e+00
    outer loop
      vertex 3.095625e+01 -2.381246e+00 4.762500e+00
      vertex 3.095625e+01 -2.381246e+00 0.000000e+00
      vertex 2.619375e+01 -2.381246e+00 4.762500e+00
    endloop
  endfacet
  facet normal 1.332268e-15 1.000000e+00 0.000000e+00
    outer loop
      vertex 2.619375e+01 -2.381246e+00 4.762500e+00
      vertex 3.095625e+01 -2.381246e+00 0.000000e+00
      vertex 2.619375e+01 -2.381246e+00 0.000000e+00
    endloop
  endfacet
  facet normal 1.000000e+00 4.144833e-15 0.000000e+00
    outer loop
      vertex 3.095625e+01 -1.666875e+01 4.762500e+00
      vertex 3.095625e+01 -1.666875e+01 0.000000e+00
      vertex 3.095625e+01 -2.381246e+00 4.762500e+00
    endloop
  endfacet
  facet normal 1.000000e+00 4.144833e-15 0.000000e+00
    outer loop
      vertex 3.095625e+01 -2.381246e+00 4.762500e+00
      vertex 3.095625e+01 -1.666875e+01 0.000000e+00
      vertex 3.095625e+01 -2.381246e+00 0.000000e+00
    endloop
  endfacet
  facet normal 1.443290e-15 -1.000000e+00 0.000000e+00
    outer loop
      vertex 2.619375e+01 -1.666875e+01 4.762500e+00
      vertex 2.619375e+01 -1.666875e+01 0.000000e+00
      vertex 3.095625e+01 -1.666875e+01 4.762500e+00
    endloop
  endfacet
  facet normal 1.443290e-15 -1.000000e+00 0.000000e+00
    outer loop
      vertex 3.095625e+01 -1.666875e+01 4.762500e+00
      vertex 2.619375e+01 -1.666875e+01 0.000000e+00
      vertex 3.095625e+01 -1.666875e+01 0.000000e+00
    endloop
  endfacet
  facet normal -1.000000e+00 -4.440893e-15 -0.000000e+00
    outer loop
      vertex 2.619375e+01 -7.143746e+00 4.762500e+00
      vertex 2.619375e+01 -7.143746e+00 0.000000e+00
      vertex 2.619375e+01 -1.666875e+01 4.762500e+00
    endloop
  endfacet
  facet normal -1.000000e+00 -4.440893e-15 0.000000e+00
    outer loop
      vertex 2.619375e+01 -1.666875e+01 4.762500e+00
      vertex 2.619375e+01 -7.143746e+00 0.000000e+00
      vertex 2.619375e+01 -1.666875e+01 0.000000e+00
    endloop
  endfacet
  facet normal 8.881784e-16 -1.000000e+00 0.000000e+00
    outer loop
      vertex 2.143125e+01 -7.143746e+00 4.762500e+00
      vertex 2.143125e+01 -7.143746e+00 0.000000e+00
      vertex 2.619375e+01 -7.143746e+00 4.762500e+00
    endloop
  endfacet
  facet normal 8.881784e-16 -1.000000e+00 0.000000e+00
    outer loop
      vertex 2.619375e+01 -7.143746e+00 4.762500e+00
      vertex 2.143125e+01 -7.143746e+00 0.000000e+00
      vertex 2.619375e+01 -7.143746e+00 0.000000e+00
    endloop
  endfacet
  facet normal 1.000000e+00 2.664535e-15 0.000000e+00
    outer loop
      vertex 2.143125e+01 -1.666875e+01 4.762500e+00
      vertex 2.143125e+01 -1.666875e+01 0.000000e+00
      vertex 2.143125e+01 -7.143746e+00 4.762500e+00
    endloop
  endfacet
  facet normal 1.000000e+00 2.664535e-15 0.000000e+00
    outer loop
      vertex 2.143125e+01 -7.143746e+00 4.762500e+00
      vertex 2.143125e+01 -1.666875e+01 0.000000e+00
      vertex 2.143125e+01 -7.143746e+00 0.000000e+00
    endloop
  endfacet
  facet normal 9.992007e-16 -1.000000e+00 0.000000e+00
    outer loop
      vertex 1.666876e+01 -1.666875e+01 4.762500e+00
      vertex 1.666876e+01 -1.666875e+01 0.000000e+00
      vertex 2.143125e+01 -1.666875e+01 4.762500e+00
    endloop
  endfacet
  facet normal 9.992007e-16 -1.000000e+00 0.000000e+00
    outer loop
      vertex 2.143125e+01 -1.666875e+01 4.762500e+00
      vertex 1.666876e+01 -1.666875e+01 0.000000e+00
      vertex 2.143125e+01 -1.666875e+01 0.000000e+00
    endloop
  endfacet
  facet normal 1.000000e+00 1.776357e-15 0.000000e+00
    outer loop
      vertex 1.666876e+01 -2.143125e+01 4.762500e+00
      vertex 1.666876e+01 -2.143125e+01 0.000000e+00
      vertex 1.666876e+01 -1.666875e+01 4.762500e+00
    endloop
  endfacet
  facet normal 1.000000e+00 1.776357e-15 0.000000e+00
    outer loop
      vertex 1.666876e+01 -1.666875e+01 4.762500e+00
      vertex 1.666876e+01 -2.143125e+01 0.000000e+00
      vertex 1.666876e+01 -1.666875e+01 0.000000e+00
    endloop
  endfacet
  facet normal 1.295260e-16 -1.000000e+00 0.000000e+00
    outer loop
      vertex 2.381258e+00 -2.143125e+01 4.762500e+00
      vertex 2.381258e+00 -2.143125e+01 0.000000e+00
      vertex 1.666876e+01 -2.143125e+01 4.762500e+00
    endloop
  endfacet
  facet normal 1.295260e-16 -1.000000e+00 0.000000e+00
    outer loop
      vertex 1.666876e+01 -2.143125e+01 4.762500e+00
      vertex 2.381258e+00 -2.143125e+01 0.000000e+00
      vertex 1.666876e+01 -2.143125e+01 0.000000e+00
    endloop
  endfacet
  facet normal -1.000000e+00 -2.414735e-15 -0.000000e+00
    outer loop
      vertex 2.381258e+00 -1.666875e+01 4.762500e+00
      vertex 2.381258e+00 -1.666875e+01 0.000000e+00
      vertex 2.381258e+00 -2.143125e+01 4.762500e+00
    endloop
  endfacet
  facet normal -1.000000e+00 -2.414735e-15 0.000000e+00
    outer loop
      vertex 2.381258e+00 -2.143125e+01 4.762500e+00
      vertex 2.381258e+00 -1.666875e+01 0.000000e+00
      vertex 2.381258e+00 -2.143125e+01 0.000000e+00
    endloop
  endfacet
  facet normal -4.996004e-16 1.000000e+00 0.000000e+00
    outer loop
      vertex 1.190626e+01 -1.666875e+01 4.762500e+00
      vertex 1.190626e+01 -1.666875e+01 0.000000e+00
      vertex 2.381258e+00 -1.666875e+01 4.762500e+00
    endloop
  endfacet
  facet normal -4.996004e-16 1.000000e+00 0.000000e+00
    outer loop
      vertex 2.381258e+00 -1.666875e+01 4.762500e+00
      vertex 1.190626e+01 -1.666875e+01 0.000000e+00
      vertex 2.381258e+00 -1.666875e+01 0.000000e+00
    endloop
  endfacet
  facet normal -1.000000e+00 -2.220446e-15 -0.000000e+00
    outer loop
      vertex 1.190626e+01 -1.190625e+01 4.762500e+00
      vertex 1.190626e+01 -1.190625e+01 0.000000e+00
      vertex 1.190626e+01 -1.666875e+01 4.762500e+00
    endloop
  endfacet
  facet normal -1.000000e+00 -2.220446e-15 0.000000e+00
    outer loop
      vertex 1.190626e+01 -1.666875e+01 4.762500e+00
      vertex 1.190626e+01 -1.190625e+01 0.000000e+00
      vertex 1.190626e+01 -1.666875e+01 0.000000e+00
    endloop
  endfacet
  facet normal 5.773161e-16 -1.000000e+00 0.000000e+00
    outer loop
      vertex -1.190624e+01 -1.190625e+01 4.762500e+00
      vertex -1.190624e+01 -1.190625e+01 0.000000e+00
      vertex 1.190626e+01 -1.190625e+01 4.762500e+00
    endloop
  endfacet
  facet normal 5.773161e-16 -1.000000e+00 0.000000e+00
    outer loop
      vertex 1.190626e+01 -1.190625e+01 4.762500e+00
      vertex -1.190624e+01 -1.190625e+01 0.000000e+00
      vertex 1.190626e+01 -1.190625e+01 0.000000e+00
    endloop
  endfacet
  facet normal 1.000000e+00 -4.440892e-16 0.000000e+00
    outer loop
      vertex -1.190624e+01 -1.666875e+01 4.762500e+00
      vertex -1.190624e+01 -1.666875e+01 0.000000e+00
      vertex -1.190624e+01 -1.190625e+01 4.762500e+00
    endloop
  endfacet
  facet normal 1.000000e+00 -4.440892e-16 0.000000e+00
    outer loop
      vertex -1.190624e+01 -1.190625e+01 4.762500e+00
      vertex -1.190624e+01 -1.666875e+01 0.000000e+00
      vertex -1.190624e+01 -1.190625e+01 0.000000e+00
    endloop
  endfacet
  facet normal -3.885781e-16 1.000000e+00 0.000000e+00
    outer loop
      vertex -2.381243e+00 -1.666875e+01 4.762500e+00
      vertex -2.381243e+00 -1.666875e+01 0.000000e+00
      vertex -1.190624e+01 -1.666875e+01 4.762500e+00
    endloop
  endfacet
  facet normal -3.885781e-16 1.000000e+00 0.000000e+00
    outer loop
      vertex -1.190624e+01 -1.666875e+01 4.762500e+00
      vertex -2.381243e+00 -1.666875e+01 0.000000e+00
      vertex -1.190624e+01 -1.666875e+01 0.000000e+00
    endloop
  endfacet
  facet normal 1.000000e+00 4.440892e-16 0.000000e+00
    outer loop
      vertex -2.381243e+00 -2.143125e+01 4.762500e+00
      vertex -2.381243e+00 -2.143125e+01 0.000000e+00
      vertex -2.381243e+00 -1.666875e+01 4.762500e+00
    endloop
  endfacet
  facet normal 1.000000e+00 4.440892e-16 0.000000e+00
    outer loop
      vertex -2.381243e+00 -1.666875e+01 4.762500e+00
      vertex -2.381243e+00 -2.143125e+01 0.000000e+00
      vertex -2.381243e+00 -1.666875e+01 0.000000e+00
    endloop
  endfacet
  facet normal 1.850372e-17 -1.000000e+00 0.000000e+00
    outer loop
      vertex -1.666874e+01 -2.143125e+01 4.762500e+00
      vertex -1.666874e+01 -2.143125e+01 0.000000e+00
      vertex -2.381243e+00 -2.143125e+01 4.762500e+00
    endloop
  endfacet
  facet normal 1.850372e-17 -1.000000e+00 0.000000e+00
    outer loop
      vertex -2.381243e+00 -2.143125e+01 4.762500e+00
      vertex -1.666874e+01 -2.143125e+01 0.000000e+00
      vertex -2.381243e+00 -2.143125e+01 0.000000e+00
    endloop
  endfacet
  facet normal 1.000000e+00 2.220446e-16 0.000000e+00
    outer loop
      vertex 3.571882e+00 7.143746e+00 4.762500e+00
      vertex 3.571882e+00 7.143746e+00 0.000000e+00
      vertex 3.571882e+00 1.190625e+01 4.762500e+00
    endloop
  endfacet
  facet normal 1.000000e+00 2.220446e-16 0.000000e+00
    outer loop
      vertex 3.571882e+00 1.190625e+01 4.762500e+00
      vertex 3.571882e+00 7.143746e+00 0.000000e+00
      vertex 3.571882e+00 1.190625e+01 0.000000e+00
    endloop
  endfacet
  facet normal -1.000000e+00 -2.220446e-16 -0.000000e+00
    outer loop
      vertex -3.571868e+00 1.190625e+01 4.762500e+00
      vertex -3.571868e+00 1.190625e+01 0.000000e+00
      vertex -3.571868e+00 7.143746e+00 4.762500e+00
    endloop
  endfacet
  facet normal -1.000000e+00 -2.220446e-16 0.000000e+00
    outer loop
      vertex -3.571868e+00 7.143746e+00 4.762500e+00
      vertex -3.571868e+00 1.190625e+01 0.000000e+00
      vertex -3.571868e+00 7.143746e+00 0.000000e+00
    endloop
  endfacet
  facet normal 0.000000e+00 1.000000e+00 0.000000e+00
    outer loop
      vertex 3.571882e+00 1.190625e+01 4.762500e+00
      vertex 3.571882e+00 1.190625e+01 0.000000e+00
      vertex -3.571868e+00 1.190625e+01 4.762500e+00
    endloop
  endfacet
  facet normal 0.000000e+00 1.000000e+00 0.000000e+00
    outer loop
      vertex -3.571868e+00 1.190625e+01 4.762500e+00
      vertex 3.571882e+00 1.190625e+01 0.000000e+00
      vertex -3.571868e+00 1.190625e+01 0.000000e+00
    endloop
  endfacet
  facet normal 0.000000e+00 0.000000e+00 -1.000000e+00
    outer loop
      vertex 1.190626e+01 2.381246e+00 0.000000e+00
      vertex 2.143125e+01 2.381246e+00 0.000000e+00
      vertex 1.190626e+01 -2.381246e+00 0.000000e+00
    endloop
  endfacet
  facet normal 0.000000e+00 0.000000e+00 -1.000000e+00
    outer loop
      vertex 1.190626e+01 2.381246e+00 0.000000e+00
      vertex 1.190626e+01 7.143746e+00 0.000000e+00
      vertex 2.143125e+01 2.381246e+00 0.000000e+00
    endloop
  endfacet
  facet normal 0.000000e+00 0.000000e+00 -1.000000e+00
    outer loop
      vertex 1.190626e+01 2.381246e+00 0.000000e+00
      vertex 7.143757e+00 2.381246e+00 0.000000e+00
      vertex 1.190626e+01 7.143746e+00 0.000000e+00
    endloop
  endfacet
  facet normal 0.000000e+00 0.000000e+00 -1.000000e+00
    outer loop
      vertex 1.190626e+01 7.143746e+00 0.000000e+00
      vertex 7.143757e+00 2.381246e+00 0.000000e+00
      vertex 7.143757e+00 7.143746e+00 0.000000e+00
    endloop
  endfacet
  facet normal 0.000000e+00 0.000000e+00 -1.000000e+00
    outer loop
      vertex 1.190626e+01 1.190625e+01 0.000000e+00
      vertex 7.143757e+00 7.143746e+00 0.000000e+00
      vertex 7.143757e+00 1.666875e+01 0.000000e+00
    endloop
  endfacet
  facet normal 0.000000e+00 0.000000e+00 -1.000000e+00
    outer loop
      vertex 1.428751e+01 1.666875e+01 0.000000e+00
      vertex 1.190626e+01 1.190625e+01 0.000000e+00
      vertex 7.143757e+00 1.666875e+01 0.000000e+00
    endloop
  endfacet
  facet normal -0.000000e+00 -0.000000e+00 -1.000000e+00
    outer loop
      vertex 1.428751e+01 1.666875e+01 0.000000e+00
      vertex 1.666876e+01 1.190625e+01 0.000000e+00
      vertex 1.190626e+01 1.190625e+01 0.000000e+00
    endloop
  endfacet
  facet normal 0.000000e+00 0.000000e+00 -1.000000e+00
    outer loop
      vertex 1.428751e+01 1.666875e+01 0.000000e+00
      vertex 1.666876e+01 1.666875e+01 0.000000e+00
      vertex 1.666876e+01 1.190625e+01 0.000000e+00
    endloop
  endfacet
  facet normal 0.000000e+00 0.000000e+00 -1.000000e+00
    outer loop
      vertex 1.428751e+01 1.666875e+01 0.000000e+00
      vertex 1.428751e+01 2.143125e+01 0.000000e+00
      vertex 1.666876e+01 1.666875e+01 0.000000e+00
    endloop
  endfacet
  facet normal 0.000000e+00 0.000000e+00 -1.000000e+00
    outer loop
      vertex 1.666876e+01 1.666875e+01 0.000000e+00
      vertex 1.428751e+01 2.143125e+01 0.000000e+00
      vertex 2.143125e+01 2.143125e+01 0.000000e+00
    endloop
  endfacet
  facet normal 0.000000e+00 0.000000e+00 -1.000000e+00
    outer loop
      vertex 2.143125e+01 1.666875e+01 0.000000e+00
      vertex 1.666876e+01 1.666875e+01 0.000000e+00
      vertex 2.143125e+01 2.143125e+01 0.000000e+00
    endloop
  endfacet
  facet normal 0.000000e+00 0.000000e+00 -1.000000e+00
    outer loop
      vertex 7.143757e+00 -2.381246e+00 0.000000e+00
      vertex -7.143744e+00 -2.381246e+00 0.000000e+00
      vertex 7.143757e+00 2.381246e+00 0.000000e+00
    endloop
  endfacet
  facet normal 0.000000e+00 0.000000e+00 -1.000000e+00
    outer loop
      vertex 7.143757e+00 -2.381246e+00 0.000000e+00
      vertex -1.190624e+01 -1.190625e+01 0.000000e+00
      vertex -7.143744e+00 -2.381246e+00 0.000000e+00
    endloop
  endfacet
  facet normal 0.000000e+00 0.000000e+00 -1.000000e+00
    outer loop
      vertex 7.143757e+00 -2.381246e+00 0.000000e+00
      vertex 1.190626e+01 -1.190625e+01 0.000000e+00
      vertex -1.190624e+01 -1.190625e+01 0.000000e+00
    endloop
  endfacet
  facet normal 0.000000e+00 0.000000e+00 -1.000000e+00
    outer loop
      vertex 7.143757e+00 -2.381246e+00 0.000000e+00
      vertex 1.190626e+01 -2.381246e+00 0.000000e+00
      vertex 1.190626e+01 -1.190625e+01 0.000000e+00
    endloop
  endfacet
  facet normal 0.000000e+00 0.000000e+00 -1.000000e+00
    outer loop
      vertex 1.190626e+01 -1.190625e+01 0.000000e+00
      vertex 1.190626e+01 -2.381246e+00 0.000000e+00
      vertex 2.143125e+01 -7.143746e+00 0.000000e+00
    endloop
  endfacet
  facet normal 0.000000e+00 0.000000e+00 -1.000000e+00
    outer loop
      vertex 1.666876e+01 -1.666875e+01 0.000000e+00
      vertex 2.143125e+01 -7.143746e+00 0.000000e+00
      vertex 2.143125e+01 -1.666875e+01 0.000000e+00
    endloop
  endfacet
  facet normal 0.000000e+00 0.000000e+00 -1.000000e+00
    outer loop
      vertex 1.666876e+01 -1.666875e+01 0.000000e+00
      vertex 1.190626e+01 -1.190625e+01 0.000000e+00
      vertex 2.143125e+01 -7.143746e+00 0.000000e+00
    endloop
  endfacet
  facet normal 0.000000e+00 0.000000e+00 -1.000000e+00
    outer loop
      vertex 1.666876e+01 -1.666875e+01 0.000000e+00
      vertex 1.190626e+01 -1.666875e+01 0.000000e+00
      vertex 1.190626e+01 -1.190625e+01 0.000000e+00
    endloop
  endfacet
  facet normal -0.000000e+00 -0.000000e+00 -1.000000e+00
    outer loop
      vertex 1.666876e+01 -1.666875e+01 0.000000e+00
      vertex 1.666876e+01 -2.143125e+01 0.000000e+00
      vertex 1.190626e+01 -1.666875e+01 0.000000e+00
    endloop
  endfacet
  facet normal 0.000000e+00 0.000000e+00 -1.000000e+00
    outer loop
      vertex 1.190626e+01 -1.666875e+01 0.000000e+00
      vertex 1.666876e+01 -2.143125e+01 0.000000e+00
      vertex 2.381258e+00 -2.143125e+01 0.000000e+00
    endloop
  endfacet
  facet normal 0.000000e+00 0.000000e+00 -1.000000e+00
    outer loop
      vertex 2.381258e+00 -1.666875e+01 0.000000e+00
      vertex 1.190626e+01 -1.666875e+01 0.000000e+00
      vertex 2.381258e+00 -2.143125e+01 0.000000e+00
    endloop
  endfacet
  facet normal 0.000000e+00 0.000000e+00 -1.000000e+00
    outer loop
      vertex -7.143744e+00 -2.381246e+00 0.000000e+00
      vertex -7.143744e+00 2.381246e+00 0.000000e+00
      vertex 7.143757e+00 2.381246e+00 0.000000e+00
    endloop
  endfacet
  facet normal 0.000000e+00 0.000000e+00 -1.000000e+00
    outer loop
      vertex 7.143757e+00 2.381246e+00 0.000000e+00
      vertex -7.143744e+00 2.381246e+00 0.000000e+00
      vertex 2.381258e+00 7.143746e+00 0.000000e+00
    endloop
  endfacet
  facet normal 0.000000e+00 0.000000e+00 -1.000000e+00
    outer loop
      vertex 3.571882e+00 7.143746e+00 0.000000e+00
      vertex 2.381258e+00 7.143746e+00 0.000000e+00
      vertex 2.381258e+00 1.067550e+01 0.000000e+00
    endloop
  endfacet
  facet normal 0.000000e+00 0.000000e+00 -1.000000e+00
    outer loop
      vertex 3.571882e+00 1.190625e+01 0.000000e+00
      vertex 2.381258e+00 1.067550e+01 0.000000e+00
      vertex -2.381243e+00 1.067550e+01 0.000000e+00
    endloop
  endfacet
  facet normal 0.000000e+00 0.000000e+00 -1.000000e+00
    outer loop
      vertex -3.571868e+00 1.190625e+01 0.000000e+00
      vertex -2.381243e+00 1.067550e+01 0.000000e+00
      vertex -3.571868e+00 7.143746e+00 0.000000e+00
    endloop
  endfacet
  facet normal 0.000000e+00 0.000000e+00 -1.000000e+00
    outer loop
      vertex -3.571868e+00 1.190625e+01 0.000000e+00
      vertex 3.571882e+00 1.190625e+01 0.000000e+00
      vertex -2.381243e+00 1.067550e+01 0.000000e+00
    endloop
  endfacet
  facet normal 0.000000e+00 0.000000e+00 -1.000000e+00
    outer loop
      vertex -1.190624e+01 2.381246e+00 0.000000e+00
      vertex -7.143744e+00 7.143746e+00 0.000000e+00
      vertex -7.143744e+00 2.381246e+00 0.000000e+00
    endloop
  endfacet
  facet normal 0.000000e+00 0.000000e+00 -1.000000e+00
    outer loop
      vertex -1.190624e+01 2.381246e+00 0.000000e+00
      vertex -1.190624e+01 7.143746e+00 0.000000e+00
      vertex -7.143744e+00 7.143746e+00 0.000000e+00
    endloop
  endfacet
  facet normal 0.000000e+00 0.000000e+00 -1.000000e+00
    outer loop
      vertex -1.190624e+01 2.381246e+00 0.000000e+00
      vertex -2.143125e+01 2.381246e+00 0.000000e+00
      vertex -1.190624e+01 7.143746e+00 0.000000e+00
    endloop
  endfacet
  facet normal -0.000000e+00 -0.000000e+00 -1.000000e+00
    outer loop
      vertex -1.190624e+01 2.381246e+00 0.000000e+00
      vertex -1.190624e+01 -2.381246e+00 0.000000e+00
      vertex -2.143125e+01 2.381246e+00 0.000000e+00
    endloop
  endfacet
  facet normal 0.000000e+00 0.000000e+00 -1.000000e+00
    outer loop
      vertex -2.143125e+01 2.381246e+00 0.000000e+00
      vertex -1.190624e+01 -2.381246e+00 0.000000e+00
      vertex -2.619375e+01 -2.381246e+00 0.000000e+00
    endloop
  endfacet
  facet normal 0.000000e+00 0.000000e+00 -1.000000e+00
    outer loop
      vertex -2.619375e+01 2.381246e+00 0.000000e+00
      vertex -2.143125e+01 2.381246e+00 0.000000e+00
      vertex -2.619375e+01 -2.381246e+00 0.000000e+00
    endloop
  endfacet
  facet normal 0.000000e+00 0.000000e+00 -1.000000e+00
    outer loop
      vertex -7.143744e+00 -2.381246e+00 0.000000e+00
      vertex -1.190624e+01 -1.190625e+01 0.000000e+00
      vertex -1.190624e+01 -2.381246e+00 0.000000e+00
    endloop
  endfacet
  facet normal -0.000000e+00 -0.000000e+00 -1.000000e+00
    outer loop
      vertex -1.190624e+01 -2.381246e+00 0.000000e+00
      vertex -1.190624e+01 -1.190625e+01 0.000000e+00
      vertex -2.143125e+01 -7.143746e+00 0.000000e+00
    endloop
  endfacet
  facet normal 0.000000e+00 0.000000e+00 -1.000000e+00
    outer loop
      vertex -2.619375e+01 -2.381246e+00 0.000000e+00
      vertex -2.143125e+01 -7.143746e+00 0.000000e+00
      vertex -2.619375e+01 -7.143746e+00 0.000000e+00
    endloop
  endfacet
  facet normal 0.000000e+00 0.000000e+00 -1.000000e+00
    outer loop
      vertex -3.095625e+01 -2.381246e+00 0.000000e+00
      vertex -2.619375e+01 -7.143746e+00 0.000000e+00
      vertex -3.095625e+01 -1.666875e+01 0.000000e+00
    endloop
  endfacet
  facet normal 0.000000e+00 0.000000e+00 -1.000000e+00
    outer loop
      vertex -3.095625e+01 -2.381246e+00 0.000000e+00
      vertex -2.619375e+01 -2.381246e+00 0.000000e+00
      vertex -2.619375e+01 -7.143746e+00 0.000000e+00
    endloop
  endfacet
  facet normal 0.000000e+00 0.000000e+00 -1.000000e+00
    outer loop
      vertex -2.381243e+00 1.067550e+01 0.000000e+00
      vertex -2.381243e+00 7.143746e+00 0.000000e+00
      vertex -3.571868e+00 7.143746e+00 0.000000e+00
    endloop
  endfacet
  facet normal 0.000000e+00 0.000000e+00 -1.000000e+00
    outer loop
      vertex -3.571868e+00 7.143746e+00 0.000000e+00
      vertex -2.381243e+00 7.143746e+00 0.000000e+00
      vertex -7.143744e+00 2.381246e+00 0.000000e+00
    endloop
  endfacet
  facet normal 0.000000e+00 0.000000e+00 -1.000000e+00
    outer loop
      vertex -7.143744e+00 7.143746e+00 0.000000e+00
      vertex -3.571868e+00 7.143746e+00 0.000000e+00
      vertex -7.143744e+00 2.381246e+00 0.000000e+00
    endloop
  endfacet
  facet normal 0.000000e+00 0.000000e+00 -1.000000e+00
    outer loop
      vertex -2.381243e+00 7.143746e+00 0.000000e+00
      vertex 2.381258e+00 7.143746e+00 0.000000e+00
      vertex -7.143744e+00 2.381246e+00 0.000000e+00
    endloop
  endfacet
  facet normal 0.000000e+00 0.000000e+00 -1.000000e+00
    outer loop
      vertex 7.143757e+00 2.381246e+00 0.000000e+00
      vertex 2.381258e+00 7.143746e+00 0.000000e+00
      vertex 3.571882e+00 7.143746e+00 0.000000e+00
    endloop
  endfacet
  facet normal -0.000000e+00 -0.000000e+00 -1.000000e+00
    outer loop
      vertex 7.143757e+00 7.143746e+00 0.000000e+00
      vertex 7.143757e+00 2.381246e+00 0.000000e+00
      vertex 3.571882e+00 7.143746e+00 0.000000e+00
    endloop
  endfacet
  facet normal 0.000000e+00 0.000000e+00 -1.000000e+00
    outer loop
      vertex 3.571882e+00 7.143746e+00 0.000000e+00
      vertex 2.381258e+00 1.067550e+01 0.000000e+00
      vertex 3.571882e+00 1.190625e+01 0.000000e+00
    endloop
  endfacet
  facet normal 0.000000e+00 0.000000e+00 -1.000000e+00
    outer loop
      vertex 1.190626e+01 7.143746e+00 0.000000e+00
      vertex 7.143757e+00 7.143746e+00 0.000000e+00
      vertex 1.190626e+01 1.190625e+01 0.000000e+00
    endloop
  endfacet
  facet normal 0.000000e+00 0.000000e+00 -1.000000e+00
    outer loop
      vertex 1.190626e+01 7.143746e+00 0.000000e+00
      vertex 2.143125e+01 7.143746e+00 0.000000e+00
      vertex 2.143125e+01 2.381246e+00 0.000000e+00
    endloop
  endfacet
  facet normal -0.000000e+00 -0.000000e+00 -1.000000e+00
    outer loop
      vertex 2.619375e+01 2.381246e+00 0.000000e+00
      vertex 2.619375e+01 -2.381246e+00 0.000000e+00
      vertex 2.143125e+01 2.381246e+00 0.000000e+00
    endloop
  endfacet
  facet normal -0.000000e+00 -0.000000e+00 -1.000000e+00
    outer loop
      vertex 2.143125e+01 2.381246e+00 0.000000e+00
      vertex 2.619375e+01 -2.381246e+00 0.000000e+00
      vertex 1.190626e+01 -2.381246e+00 0.000000e+00
    endloop
  endfacet
  facet normal 0.000000e+00 0.000000e+00 -1.000000e+00
    outer loop
      vertex 1.190626e+01 -2.381246e+00 0.000000e+00
      vertex 2.619375e+01 -2.381246e+00 0.000000e+00
      vertex 2.143125e+01 -7.143746e+00 0.000000e+00
    endloop
  endfacet
  facet normal 0.000000e+00 0.000000e+00 -1.000000e+00
    outer loop
      vertex 2.143125e+01 -7.143746e+00 0.000000e+00
      vertex 2.619375e+01 -2.381246e+00 0.000000e+00
      vertex 2.619375e+01 -7.143746e+00 0.000000e+00
    endloop
  endfacet
  facet normal 0.000000e+00 0.000000e+00 -1.000000e+00
    outer loop
      vertex 2.619375e+01 -7.143746e+00 0.000000e+00
      vertex 2.619375e+01 -2.381246e+00 0.000000e+00
      vertex 3.095625e+01 -2.381246e+00 0.000000e+00
    endloop
  endfacet
  facet normal 0.000000e+00 0.000000e+00 -1.000000e+00
    outer loop
      vertex 3.095625e+01 -1.666875e+01 0.000000e+00
      vertex 2.619375e+01 -7.143746e+00 0.000000e+00
      vertex 3.095625e+01 -2.381246e+00 0.000000e+00
    endloop
  endfacet
  facet normal 0.000000e+00 0.000000e+00 -1.000000e+00
    outer loop
      vertex 3.095625e+01 -1.666875e+01 0.000000e+00
      vertex 2.619375e+01 -1.666875e+01 0.000000e+00
      vertex 2.619375e+01 -7.143746e+00 0.000000e+00
    endloop
  endfacet
  facet normal 0.000000e+00 0.000000e+00 -1.000000e+00
    outer loop
      vertex -2.143125e+01 -7.143746e+00 0.000000e+00
      vertex -1.190624e+01 -1.190625e+01 0.000000e+00
      vertex -1.666874e+01 -1.666875e+01 0.000000e+00
    endloop
  endfacet
  facet normal 0.000000e+00 0.000000e+00 -1.000000e+00
    outer loop
      vertex -2.143125e+01 -1.666875e+01 0.000000e+00
      vertex -2.143125e+01 -7.143746e+00 0.000000e+00
      vertex -1.666874e+01 -1.666875e+01 0.000000e+00
    endloop
  endfacet
  facet normal -0.000000e+00 -0.000000e+00 -1.000000e+00
    outer loop
      vertex -2.381243e+00 -1.666875e+01 0.000000e+00
      vertex -2.381243e+00 -2.143125e+01 0.000000e+00
      vertex -1.190624e+01 -1.666875e+01 0.000000e+00
    endloop
  endfacet
  facet normal 0.000000e+00 0.000000e+00 -1.000000e+00
    outer loop
      vertex -1.190624e+01 -1.666875e+01 0.000000e+00
      vertex -2.381243e+00 -2.143125e+01 0.000000e+00
      vertex -1.666874e+01 -2.143125e+01 0.000000e+00
    endloop
  endfacet
  facet normal 0.000000e+00 0.000000e+00 -1.000000e+00
    outer loop
      vertex -1.666874e+01 -1.666875e+01 0.000000e+00
      vertex -1.190624e+01 -1.666875e+01 0.000000e+00
      vertex -1.666874e+01 -2.143125e+01 0.000000e+00
    endloop
  endfacet
  facet normal 0.000000e+00 0.000000e+00 -1.000000e+00
    outer loop
      vertex -1.666874e+01 -1.666875e+01 0.000000e+00
      vertex -1.190624e+01 -1.190625e+01 0.000000e+00
      vertex -1.190624e+01 -1.666875e+01 0.000000e+00
    endloop
  endfacet
  facet normal 0.000000e+00 0.000000e+00 -1.000000e+00
    outer loop
      vertex -1.190624e+01 -2.381246e+00 0.000000e+00
      vertex -2.143125e+01 -7.143746e+00 0.000000e+00
      vertex -2.619375e+01 -2.381246e+00 0.000000e+00
    endloop
  endfacet
  facet normal 0.000000e+00 0.000000e+00 -1.000000e+00
    outer loop
      vertex -2.619375e+01 -7.143746e+00 0.000000e+00
      vertex -2.619375e+01 -1.666875e+01 0.000000e+00
      vertex -3.095625e+01 -1.666875e+01 0.000000e+00
    endloop
  endfacet
  facet normal 0.000000e+00 0.000000e+00 -1.000000e+00
    outer loop
      vertex -2.143125e+01 2.381246e+00 0.000000e+00
      vertex -2.143125e+01 7.143746e+00 0.000000e+00
      vertex -1.190624e+01 7.143746e+00 0.000000e+00
    endloop
  endfacet
  facet normal 0.000000e+00 0.000000e+00 -1.000000e+00
    outer loop
      vertex -1.190624e+01 7.143746e+00 0.000000e+00
      vertex -1.190624e+01 1.190625e+01 0.000000e+00
      vertex -7.143744e+00 7.143746e+00 0.000000e+00
    endloop
  endfacet
  facet normal 0.000000e+00 0.000000e+00 -1.000000e+00
    outer loop
      vertex -7.143744e+00 7.143746e+00 0.000000e+00
      vertex -1.190624e+01 1.190625e+01 0.000000e+00
      vertex -7.143744e+00 1.666875e+01 0.000000e+00
    endloop
  endfacet
  facet normal 0.000000e+00 0.000000e+00 -1.000000e+00
    outer loop
      vertex -7.143744e+00 1.666875e+01 0.000000e+00
      vertex -1.190624e+01 1.190625e+01 0.000000e+00
      vertex -1.428749e+01 1.666875e+01 0.000000e+00
    endloop
  endfacet
  facet normal -0.000000e+00 -0.000000e+00 -1.000000e+00
    outer loop
      vertex -1.428749e+01 1.666875e+01 0.000000e+00
      vertex -1.190624e+01 1.190625e+01 0.000000e+00
      vertex -1.666874e+01 1.190625e+01 0.000000e+00
    endloop
  endfacet
  facet normal 0.000000e+00 0.000000e+00 -1.000000e+00
    outer loop
      vertex -1.666874e+01 1.666875e+01 0.000000e+00
      vertex -1.428749e+01 1.666875e+01 0.000000e+00
      vertex -1.666874e+01 1.190625e+01 0.000000e+00
    endloop
  endfacet
  facet normal 0.000000e+00 0.000000e+00 -1.000000e+00
    outer loop
      vertex -1.666874e+01 1.666875e+01 0.000000e+00
      vertex -1.428749e+01 2.143125e+01 0.000000e+00
      vertex -1.428749e+01 1.666875e+01 0.000000e+00
    endloop
  endfacet
  facet normal 0.000000e+00 0.000000e+00 -1.000000e+00
    outer loop
      vertex -1.666874e+01 1.666875e+01 0.000000e+00
      vertex -2.143125e+01 2.143125e+01 0.000000e+00
      vertex -1.428749e+01 2.143125e+01 0.000000e+00
    endloop
  endfacet
  facet normal 0.000000e+00 0.000000e+00 -1.000000e+00
    outer loop
      vertex -1.666874e+01 1.666875e+01 0.000000e+00
      vertex -2.143125e+01 1.666875e+01 0.000000e+00
      vertex -2.143125e+01 2.143125e+01 0.000000e+00
    endloop
  endfacet
  facet normal 0.000000e+00 0.000000e+00 1.000000e+00
    outer loop
      vertex 1.190626e+01 -2.381246e+00 4.762500e+00
      vertex 2.143125e+01 2.381246e+00 4.762500e+00
      vertex 1.190626e+01 2.381246e+00 4.762500e+00
    endloop
  endfacet
  facet normal 0.000000e+00 0.000000e+00 1.000000e+00
    outer loop
      vertex 1.190626e+01 -2.381246e+00 4.762500e+00
      vertex 2.619375e+01 -2.381246e+00 4.762500e+00
      vertex 2.143125e+01 2.381246e+00 4.762500e+00
    endloop
  endfacet
  facet normal 0.000000e+00 0.000000e+00 1.000000e+00
    outer loop
      vertex 1.190626e+01 -2.381246e+00 4.762500e+00
      vertex 2.143125e+01 -7.143746e+00 4.762500e+00
      vertex 2.619375e+01 -2.381246e+00 4.762500e+00
    endloop
  endfacet
  facet normal 0.000000e+00 0.000000e+00 1.000000e+00
    outer loop
      vertex 1.190626e+01 -2.381246e+00 4.762500e+00
      vertex 1.190626e+01 -1.190625e+01 4.762500e+00
      vertex 2.143125e+01 -7.143746e+00 4.762500e+00
    endloop
  endfacet
  facet normal 0.000000e+00 0.000000e+00 1.000000e+00
    outer loop
      vertex 1.190626e+01 -2.381246e+00 4.762500e+00
      vertex 7.143757e+00 -2.381246e+00 4.762500e+00
      vertex 1.190626e+01 -1.190625e+01 4.762500e+00
    endloop
  endfacet
  facet normal 0.000000e+00 0.000000e+00 1.000000e+00
    outer loop
      vertex 1.190626e+01 -1.190625e+01 4.762500e+00
      vertex 7.143757e+00 -2.381246e+00 4.762500e+00
      vertex -7.143744e+00 -2.381246e+00 4.762500e+00
    endloop
  endfacet
  facet normal 0.000000e+00 0.000000e+00 1.000000e+00
    outer loop
      vertex -1.190624e+01 -1.190625e+01 4.762500e+00
      vertex -7.143744e+00 -2.381246e+00 4.762500e+00
      vertex -1.190624e+01 -2.381246e+00 4.762500e+00
    endloop
  endfacet
  facet normal 0.000000e+00 0.000000e+00 1.000000e+00
    outer loop
      vertex -2.143125e+01 -7.143746e+00 4.762500e+00
      vertex -1.190624e+01 -2.381246e+00 4.762500e+00
      vertex -2.619375e+01 -2.381246e+00 4.762500e+00
    endloop
  endfacet
  facet normal 0.000000e+00 0.000000e+00 1.000000e+00
    outer loop
      vertex -2.619375e+01 -7.143746e+00 4.762500e+00
      vertex -2.619375e+01 -2.381246e+00 4.762500e+00
      vertex -3.095625e+01 -2.381246e+00 4.762500e+00
    endloop
  endfacet
  facet normal 0.000000e+00 0.000000e+00 1.000000e+00
    outer loop
      vertex -3.095625e+01 -1.666875e+01 4.762500e+00
      vertex -2.619375e+01 -7.143746e+00 4.762500e+00
      vertex -3.095625e+01 -2.381246e+00 4.762500e+00
    endloop
  endfacet
  facet normal 0.000000e+00 0.000000e+00 1.000000e+00
    outer loop
      vertex -3.095625e+01 -1.666875e+01 4.762500e+00
      vertex -2.619375e+01 -1.666875e+01 4.762500e+00
      vertex -2.619375e+01 -7.143746e+00 4.762500e+00
    endloop
  endfacet
  facet normal 0.000000e+00 0.000000e+00 1.000000e+00
    outer loop
      vertex -7.143744e+00 -2.381246e+00 4.762500e+00
      vertex 7.143757e+00 -2.381246e+00 4.762500e+00
      vertex -7.143744e+00 2.381246e+00 4.762500e+00
    endloop
  endfacet
  facet normal 0.000000e+00 0.000000e+00 1.000000e+00
    outer loop
      vertex -7.143744e+00 2.381246e+00 4.762500e+00
      vertex 7.143757e+00 -2.381246e+00 4.762500e+00
      vertex 7.143757e+00 2.381246e+00 4.762500e+00
    endloop
  endfacet
  facet normal 0.000000e+00 0.000000e+00 1.000000e+00
    outer loop
      vertex 2.381258e+00 7.143746e+00 4.762500e+00
      vertex 7.143757e+00 2.381246e+00 4.762500e+00
      vertex 3.571882e+00 7.143746e+00 4.762500e+00
    endloop
  endfacet
  facet normal 0.000000e+00 0.000000e+00 1.000000e+00
    outer loop
      vertex 2.381258e+00 1.067550e+01 4.762500e+00
      vertex 3.571882e+00 7.143746e+00 4.762500e+00
      vertex 3.571882e+00 1.190625e+01 4.762500e+00
    endloop
  endfacet
  facet normal 0.000000e+00 0.000000e+00 1.000000e+00
    outer loop
      vertex -3.571868e+00 1.190625e+01 4.762500e+00
      vertex 2.381258e+00 1.067550e+01 4.762500e+00
      vertex 3.571882e+00 1.190625e+01 4.762500e+00
    endloop
  endfacet
  facet normal 0.000000e+00 0.000000e+00 1.000000e+00
    outer loop
      vertex -3.571868e+00 1.190625e+01 4.762500e+00
      vertex -2.381243e+00 1.067550e+01 4.762500e+00
      vertex 2.381258e+00 1.067550e+01 4.762500e+00
    endloop
  endfacet
  facet normal 0.000000e+00 0.000000e+00 1.000000e+00
    outer loop
      vertex -3.571868e+00 1.190625e+01 4.762500e+00
      vertex -3.571868e+00 7.143746e+00 4.762500e+00
      vertex -2.381243e+00 1.067550e+01 4.762500e+00
    endloop
  endfacet
  facet normal 0.000000e+00 0.000000e+00 1.000000e+00
    outer loop
      vertex -2.381243e+00 1.067550e+01 4.762500e+00
      vertex -3.571868e+00 7.143746e+00 4.762500e+00
      vertex -2.381243e+00 7.143746e+00 4.762500e+00
    endloop
  endfacet
  facet normal 0.000000e+00 0.000000e+00 1.000000e+00
    outer loop
      vertex -2.381243e+00 7.143746e+00 4.762500e+00
      vertex -3.571868e+00 7.143746e+00 4.762500e+00
      vertex -7.143744e+00 2.381246e+00 4.762500e+00
    endloop
  endfacet
  facet normal 0.000000e+00 0.000000e+00 1.000000e+00
    outer loop
      vertex 2.381258e+00 7.143746e+00 4.762500e+00
      vertex -7.143744e+00 2.381246e+00 4.762500e+00
      vertex 7.143757e+00 2.381246e+00 4.762500e+00
    endloop
  endfacet
  facet normal 0.000000e+00 0.000000e+00 1.000000e+00
    outer loop
      vertex 2.381258e+00 7.143746e+00 4.762500e+00
      vertex -2.381243e+00 7.143746e+00 4.762500e+00
      vertex -7.143744e+00 2.381246e+00 4.762500e+00
    endloop
  endfacet
  facet normal 0.000000e+00 0.000000e+00 1.000000e+00
    outer loop
      vertex 1.190626e+01 2.381246e+00 4.762500e+00
      vertex 1.190626e+01 7.143746e+00 4.762500e+00
      vertex 7.143757e+00 2.381246e+00 4.762500e+00
    endloop
  endfacet
  facet normal 0.000000e+00 0.000000e+00 1.000000e+00
    outer loop
      vertex 1.190626e+01 2.381246e+00 4.762500e+00
      vertex 2.143125e+01 2.381246e+00 4.762500e+00
      vertex 1.190626e+01 7.143746e+00 4.762500e+00
    endloop
  endfacet
  facet normal 0.000000e+00 0.000000e+00 1.000000e+00
    outer loop
      vertex 1.190626e+01 7.143746e+00 4.762500e+00
      vertex 2.143125e+01 2.381246e+00 4.762500e+00
      vertex 2.143125e+01 7.143746e+00 4.762500e+00
    endloop
  endfacet
  facet normal 0.000000e+00 0.000000e+00 1.000000e+00
    outer loop
      vertex 1.190626e+01 -1.190625e+01 4.762500e+00
      vertex -7.143744e+00 -2.381246e+00 4.762500e+00
      vertex -1.190624e+01 -1.190625e+01 4.762500e+00
    endloop
  endfacet
  facet normal 0.000000e+00 0.000000e+00 1.000000e+00
    outer loop
      vertex -2.619375e+01 -2.381246e+00 4.762500e+00
      vertex -1.190624e+01 -2.381246e+00 4.762500e+00
      vertex -2.143125e+01 2.381246e+00 4.762500e+00
    endloop
  endfacet
  facet normal 0.000000e+00 0.000000e+00 1.000000e+00
    outer loop
      vertex -2.619375e+01 2.381246e+00 4.762500e+00
      vertex -2.619375e+01 -2.381246e+00 4.762500e+00
      vertex -2.143125e+01 2.381246e+00 4.762500e+00
    endloop
  endfacet
  facet normal 0.000000e+00 0.000000e+00 1.000000e+00
    outer loop
      vertex -7.143744e+00 2.381246e+00 4.762500e+00
      vertex -7.143744e+00 7.143746e+00 4.762500e+00
      vertex -1.190624e+01 2.381246e+00 4.762500e+00
    endloop
  endfacet
  facet normal 0.000000e+00 0.000000e+00 1.000000e+00
    outer loop
      vertex -7.143744e+00 2.381246e+00 4.762500e+00
      vertex -3.571868e+00 7.143746e+00 4.762500e+00
      vertex -7.143744e+00 7.143746e+00 4.762500e+00
    endloop
  endfacet
  facet normal 0.000000e+00 0.000000e+00 1.000000e+00
    outer loop
      vertex 2.381258e+00 1.067550e+01 4.762500e+00
      vertex 2.381258e+00 7.143746e+00 4.762500e+00
      vertex 3.571882e+00 7.143746e+00 4.762500e+00
    endloop
  endfacet
  facet normal 0.000000e+00 0.000000e+00 1.000000e+00
    outer loop
      vertex -7.143744e+00 1.666875e+01 4.762500e+00
      vertex -1.190624e+01 1.190625e+01 4.762500e+00
      vertex -7.143744e+00 7.143746e+00 4.762500e+00
    endloop
  endfacet
  facet normal 0.000000e+00 0.000000e+00 1.000000e+00
    outer loop
      vertex -7.143744e+00 1.666875e+01 4.762500e+00
      vertex -1.428749e+01 1.666875e+01 4.762500e+00
      vertex -1.190624e+01 1.190625e+01 4.762500e+00
    endloop
  endfacet
  facet normal 0.000000e+00 0.000000e+00 1.000000e+00
    outer loop
      vertex -1.190624e+01 1.190625e+01 4.762500e+00
      vertex -1.428749e+01 1.666875e+01 4.762500e+00
      vertex -1.666874e+01 1.190625e+01 4.762500e+00
    endloop
  endfacet
  facet normal 0.000000e+00 0.000000e+00 1.000000e+00
    outer loop
      vertex -1.666874e+01 1.190625e+01 4.762500e+00
      vertex -1.428749e+01 1.666875e+01 4.762500e+00
      vertex -1.666874e+01 1.666875e+01 4.762500e+00
    endloop
  endfacet
  facet normal 0.000000e+00 0.000000e+00 1.000000e+00
    outer loop
      vertex -1.666874e+01 1.666875e+01 4.762500e+00
      vertex -1.428749e+01 1.666875e+01 4.762500e+00
      vertex -1.428749e+01 2.143125e+01 4.762500e+00
    endloop
  endfacet
  facet normal 0.000000e+00 0.000000e+00 1.000000e+00
    outer loop
      vertex -2.143125e+01 2.143125e+01 4.762500e+00
      vertex -1.666874e+01 1.666875e+01 4.762500e+00
      vertex -1.428749e+01 2.143125e+01 4.762500e+00
    endloop
  endfacet
  facet normal 0.000000e+00 0.000000e+00 1.000000e+00
    outer loop
      vertex -2.143125e+01 2.143125e+01 4.762500e+00
      vertex -2.143125e+01 1.666875e+01 4.762500e+00
      vertex -1.666874e+01 1.666875e+01 4.762500e+00
    endloop
  endfacet
  facet normal 0.000000e+00 0.000000e+00 1.000000e+00
    outer loop
      vertex -1.190624e+01 1.190625e+01 4.762500e+00
      vertex -1.190624e+01 7.143746e+00 4.762500e+00
      vertex -7.143744e+00 7.143746e+00 4.762500e+00
    endloop
  endfacet
  facet normal 0.000000e+00 0.000000e+00 1.000000e+00
    outer loop
      vertex -7.143744e+00 7.143746e+00 4.762500e+00
      vertex -1.190624e+01 7.143746e+00 4.762500e+00
      vertex -1.190624e+01 2.381246e+00 4.762500e+00
    endloop
  endfacet
  facet normal 0.000000e+00 0.000000e+00 1.000000e+00
    outer loop
      vertex -1.190624e+01 2.381246e+00 4.762500e+00
      vertex -1.190624e+01 7.143746e+00 4.762500e+00
      vertex -2.143125e+01 2.381246e+00 4.762500e+00
    endloop
  endfacet
  facet normal 0.000000e+00 0.000000e+00 1.000000e+00
    outer loop
      vertex -1.190624e+01 -2.381246e+00 4.762500e+00
      vertex -1.190624e+01 2.381246e+00 4.762500e+00
      vertex -2.143125e+01 2.381246e+00 4.762500e+00
    endloop
  endfacet
  facet normal 0.000000e+00 0.000000e+00 1.000000e+00
    outer loop
      vertex -1.190624e+01 7.143746e+00 4.762500e+00
      vertex -2.143125e+01 7.143746e+00 4.762500e+00
      vertex -2.143125e+01 2.381246e+00 4.762500e+00
    endloop
  endfacet
  facet normal 0.000000e+00 0.000000e+00 1.000000e+00
    outer loop
      vertex -2.143125e+01 -7.143746e+00 4.762500e+00
      vertex -2.619375e+01 -2.381246e+00 4.762500e+00
      vertex -2.619375e+01 -7.143746e+00 4.762500e+00
    endloop
  endfacet
  facet normal 0.000000e+00 0.000000e+00 1.000000e+00
    outer loop
      vertex -2.143125e+01 -1.666875e+01 4.762500e+00
      vertex -1.666874e+01 -1.666875e+01 4.762500e+00
      vertex -2.143125e+01 -7.143746e+00 4.762500e+00
    endloop
  endfacet
  facet normal 0.000000e+00 0.000000e+00 1.000000e+00
    outer loop
      vertex -2.143125e+01 -7.143746e+00 4.762500e+00
      vertex -1.666874e+01 -1.666875e+01 4.762500e+00
      vertex -1.190624e+01 -1.190625e+01 4.762500e+00
    endloop
  endfacet
  facet normal 0.000000e+00 0.000000e+00 1.000000e+00
    outer loop
      vertex -1.190624e+01 -2.381246e+00 4.762500e+00
      vertex -2.143125e+01 -7.143746e+00 4.762500e+00
      vertex -1.190624e+01 -1.190625e+01 4.762500e+00
    endloop
  endfacet
  facet normal 0.000000e+00 0.000000e+00 1.000000e+00
    outer loop
      vertex -1.190624e+01 -1.190625e+01 4.762500e+00
      vertex -1.666874e+01 -1.666875e+01 4.762500e+00
      vertex -1.190624e+01 -1.666875e+01 4.762500e+00
    endloop
  endfacet
  facet normal 0.000000e+00 0.000000e+00 1.000000e+00
    outer loop
      vertex -1.190624e+01 -1.666875e+01 4.762500e+00
      vertex -1.666874e+01 -1.666875e+01 4.762500e+00
      vertex -1.666874e+01 -2.143125e+01 4.762500e+00
    endloop
  endfacet
  facet normal 0.000000e+00 0.000000e+00 1.000000e+00
    outer loop
      vertex -2.381243e+00 -2.143125e+01 4.762500e+00
      vertex -1.190624e+01 -1.666875e+01 4.762500e+00
      vertex -1.666874e+01 -2.143125e+01 4.762500e+00
    endloop
  endfacet
  facet normal 0.000000e+00 0.000000e+00 1.000000e+00
    outer loop
      vertex -2.381243e+00 -2.143125e+01 4.762500e+00
      vertex -2.381243e+00 -1.666875e+01 4.762500e+00
      vertex -1.190624e+01 -1.666875e+01 4.762500e+00
    endloop
  endfacet
  facet normal 0.000000e+00 0.000000e+00 1.000000e+00
    outer loop
      vertex 2.143125e+01 -7.143746e+00 4.762500e+00
      vertex 1.190626e+01 -1.190625e+01 4.762500e+00
      vertex 1.666876e+01 -1.666875e+01 4.762500e+00
    endloop
  endfacet
  facet normal 0.000000e+00 0.000000e+00 1.000000e+00
    outer loop
      vertex 2.143125e+01 -1.666875e+01 4.762500e+00
      vertex 2.143125e+01 -7.143746e+00 4.762500e+00
      vertex 1.666876e+01 -1.666875e+01 4.762500e+00
    endloop
  endfacet
  facet normal 0.000000e+00 0.000000e+00 1.000000e+00
    outer loop
      vertex 2.381258e+00 -1.666875e+01 4.762500e+00
      vertex 2.381258e+00 -2.143125e+01 4.762500e+00
      vertex 1.190626e+01 -1.666875e+01 4.762500e+00
    endloop
  endfacet
  facet normal 0.000000e+00 0.000000e+00 1.000000e+00
    outer loop
      vertex 1.190626e+01 -1.666875e+01 4.762500e+00
      vertex 2.381258e+00 -2.143125e+01 4.762500e+00
      vertex 1.666876e+01 -2.143125e+01 4.762500e+00
    endloop
  endfacet
  facet normal 0.000000e+00 0.000000e+00 1.000000e+00
    outer loop
      vertex 1.666876e+01 -1.666875e+01 4.762500e+00
      vertex 1.190626e+01 -1.666875e+01 4.762500e+00
      vertex 1.666876e+01 -2.143125e+01 4.762500e+00
    endloop
  endfacet
  facet normal 0.000000e+00 0.000000e+00 1.000000e+00
    outer loop
      vertex 1.666876e+01 -1.666875e+01 4.762500e+00
      vertex 1.190626e+01 -1.190625e+01 4.762500e+00
      vertex 1.190626e+01 -1.666875e+01 4.762500e+00
    endloop
  endfacet
  facet normal 0.000000e+00 0.000000e+00 1.000000e+00
    outer loop
      vertex 2.143125e+01 -7.143746e+00 4.762500e+00
      vertex 2.619375e+01 -7.143746e+00 4.762500e+00
      vertex 2.619375e+01 -2.381246e+00 4.762500e+00
    endloop
  endfacet
  facet normal 0.000000e+00 0.000000e+00 1.000000e+00
    outer loop
      vertex 2.619375e+01 -2.381246e+00 4.762500e+00
      vertex 2.619375e+01 -7.143746e+00 4.762500e+00
      vertex 3.095625e+01 -2.381246e+00 4.762500e+00
    endloop
  endfacet
  facet normal 0.000000e+00 0.000000e+00 1.000000e+00
    outer loop
      vertex 3.095625e+01 -2.381246e+00 4.762500e+00
      vertex 2.619375e+01 -7.143746e+00 4.762500e+00
      vertex 3.095625e+01 -1.666875e+01 4.762500e+00
    endloop
  endfacet
  facet normal 0.000000e+00 0.000000e+00 1.000000e+00
    outer loop
      vertex 3.095625e+01 -1.666875e+01 4.762500e+00
      vertex 2.619375e+01 -7.143746e+00 4.762500e+00
      vertex 2.619375e+01 -1.666875e+01 4.762500e+00
    endloop
  endfacet
  facet normal 0.000000e+00 0.000000e+00 1.000000e+00
    outer loop
      vertex 2.619375e+01 -2.381246e+00 4.762500e+00
      vertex 2.619375e+01 2.381246e+00 4.762500e+00
      vertex 2.143125e+01 2.381246e+00 4.762500e+00
    endloop
  endfacet
  facet normal 0.000000e+00 0.000000e+00 1.000000e+00
    outer loop
      vertex 7.143757e+00 2.381246e+00 4.762500e+00
      vertex 1.190626e+01 7.143746e+00 4.762500e+00
      vertex 7.143757e+00 7.143746e+00 4.762500e+00
    endloop
  endfacet
  facet normal 0.000000e+00 0.000000e+00 1.000000e+00
    outer loop
      vertex 3.571882e+00 7.143746e+00 4.762500e+00
      vertex 7.143757e+00 2.381246e+00 4.762500e+00
      vertex 7.143757e+00 7.143746e+00 4.762500e+00
    endloop
  endfacet
  facet normal 0.000000e+00 0.000000e+00 1.000000e+00
    outer loop
      vertex 1.666876e+01 1.190625e+01 4.762500e+00
      vertex 1.428751e+01 1.666875e+01 4.762500e+00
      vertex 1.190626e+01 1.190625e+01 4.762500e+00
    endloop
  endfacet
  facet normal 0.000000e+00 0.000000e+00 1.000000e+00
    outer loop
      vertex 1.666876e+01 1.190625e+01 4.762500e+00
      vertex 1.666876e+01 1.666875e+01 4.762500e+00
      vertex 1.428751e+01 1.666875e+01 4.762500e+00
    endloop
  endfacet
  facet normal 0.000000e+00 0.000000e+00 1.000000e+00
    outer loop
      vertex 1.428751e+01 1.666875e+01 4.762500e+00
      vertex 1.666876e+01 1.666875e+01 4.762500e+00
      vertex 1.428751e+01 2.143125e+01 4.762500e+00
    endloop
  endfacet
  facet normal 0.000000e+00 0.000000e+00 1.000000e+00
    outer loop
      vertex 1.428751e+01 2.143125e+01 4.762500e+00
      vertex 1.666876e+01 1.666875e+01 4.762500e+00
      vertex 2.143125e+01 2.143125e+01 4.762500e+00
    endloop
  endfacet
  facet normal 0.000000e+00 0.000000e+00 1.000000e+00
    outer loop
      vertex 2.143125e+01 2.143125e+01 4.762500e+00
      vertex 1.666876e+01 1.666875e+01 4.762500e+00
      vertex 2.143125e+01 1.666875e+01 4.762500e+00
    endloop
  endfacet
  facet normal 0.000000e+00 0.000000e+00 1.000000e+00
    outer loop
      vertex 1.428751e+01 1.666875e+01 4.762500e+00
      vertex 7.143757e+00 1.666875e+01 4.762500e+00
      vertex 1.190626e+01 1.190625e+01 4.762500e+00
    endloop
  endfacet
  facet normal 0.000000e+00 0.000000e+00 1.000000e+00
    outer loop
      vertex 1.190626e+01 1.190625e+01 4.762500e+00
      vertex 7.143757e+00 1.666875e+01 4.762500e+00
      vertex 7.143757e+00 7.143746e+00 4.762500e+00
    endloop
  endfacet
  facet normal 0.000000e+00 0.000000e+00 1.000000e+00
    outer loop
      vertex 1.190626e+01 7.143746e+00 4.762500e+00
      vertex 1.190626e+01 1.190625e+01 4.762500e+00
      vertex 7.143757e+00 7.143746e+00 4.762500e+00
    endloop
  endfacet
endsolid Default
